<svg width="900" height="260" viewBox="0 0 900 260" xmlns="http://www.w3.org/2000/svg">
  <defs>
    <linearGradient id="bg" x1="0%" y1="0%" x2="100%" y2="100%">
      <stop offset="0%" style="stop-color:#0d0d14"/>
      <stop offset="100%" style="stop-color:#1a1a2e"/>
    </linearGradient>
    <marker id="arr" markerWidth="8" markerHeight="8" refX="6" refY="3" orient="auto">
      <path d="M0,0 L0,6 L8,3 z" fill="#2088FF"/>
    </marker>
  </defs>
  <rect width="900" height="260" fill="url(#bg)"/>
  <text x="450" y="28" font-family="monospace" font-size="12" font-weight="bold" fill="#2088FF" text-anchor="middle">DATAOPS CI/CD — GitHub Actions + Great Expectations</text>
  <rect x="20" y="115" width="120" height="55" rx="4" fill="#0a0a1a" stroke="#2088FF" stroke-width="1.5"/><text x="80" y="137" font-family="monospace" font-size="8" fill="#2088FF" text-anchor="middle">Git Push</text><rect x="168" y="115" width="120" height="55" rx="4" fill="#0a0a1a" stroke="#2088FF" stroke-width="1.5"/><text x="228" y="137" font-family="monospace" font-size="8" fill="#2088FF" text-anchor="middle">GitHub Actions</text><rect x="316" y="115" width="120" height="55" rx="4" fill="#0a0a1a" stroke="#2088FF" stroke-width="1.5"/><text x="376" y="137" font-family="monospace" font-size="8" fill="#2088FF" text-anchor="middle">Quality Gate</text><rect x="464" y="115" width="120" height="55" rx="4" fill="#0a0a1a" stroke="#2088FF" stroke-width="1.5"/><text x="524" y="137" font-family="monospace" font-size="8" fill="#2088FF" text-anchor="middle">dbt Tests</text><rect x="612" y="115" width="120" height="55" rx="4" fill="#0a0a1a" stroke="#2088FF" stroke-width="1.5"/><text x="672" y="137" font-family="monospace" font-size="8" fill="#2088FF" text-anchor="middle">Deploy</text><rect x="760" y="115" width="120" height="55" rx="4" fill="#0a0a1a" stroke="#2088FF" stroke-width="1.5"/><text x="820" y="137" font-family="monospace" font-size="8" fill="#2088FF" text-anchor="middle">Slack Alert</text>
  <line x1="140" y1="142" x2="162" y2="142" stroke="#2088FF" stroke-width="1.5" marker-end="url(#arr)"/><line x1="288" y1="142" x2="310" y2="142" stroke="#2088FF" stroke-width="1.5" marker-end="url(#arr)"/><line x1="436" y1="142" x2="458" y2="142" stroke="#2088FF" stroke-width="1.5" marker-end="url(#arr)"/><line x1="584" y1="142" x2="606" y2="142" stroke="#2088FF" stroke-width="1.5" marker-end="url(#arr)"/><line x1="732" y1="142" x2="754" y2="142" stroke="#2088FF" stroke-width="1.5" marker-end="url(#arr)"/>
  <rect x="20" y="205" width="860" height="35" rx="4" fill="#070710" stroke="#2088FF" stroke-width="0.5" stroke-opacity="0.3"/>
  <text x="450" y="227" font-family="monospace" font-size="10" fill="#2088FF" text-anchor="middle">github.com/itsnikhile/dataops-ci-cd-pipeline</text>
</svg>